# xmcd
#
# Track frame offsets:
#	182
#	20370
#	29580
#	46620
#	64835
#	78827
#	92310
#	110485
#	129150
#	142495
#	156470
#	174962
#	196265
#	216260
#
# Disc length: 3167 seconds
#
# Revision: 0
# Processed by: cddbd v1.4PL0 Copyright (c) Steve Scherf et al.
# Submitted via: AudioConverter v4.05 Copyright (c) Dennis Rebentrost
#
DISCID=b80c5d0e
DTITLE=Patrick Verbeke - French blues
DYEAR=1989
DGENRE=Blues
TTITLE0=Au pays du Mississippi
TTITLE1=Lightnin' track
TTITLE2=Mama talk to your daughter
TTITLE3=Medley: Jesus on the mainline - Down by the riverside
TTITLE4=Lonesome travellin' man
TTITLE5=Juke-joint boogie
TTITLE6=Sweet home Chicago
TTITLE7=School boy's blues
TTITLE8=Nobody knows you when you're down and out
TTITLE9=Flip, flop and fly
TTITLE10=St James infirmary
TTITLE11=Lucky's man blues
TTITLE12=Could it be
TTITLE13=Travellin' jam
EXTD=
EXTT0=
EXTT1=
EXTT2=
EXTT3=
EXTT4=
EXTT5=
EXTT6=
EXTT7=
EXTT8=
EXTT9=
EXTT10=
EXTT11=
EXTT12=
EXTT13=
PLAYORDER=
